Coordinates
version=1
nRows=26
nColumns=33
inDegrees=yes

Units are S.I. units (second, meters, Newtons, ...)
Angles are in degrees.

endheader
time	ground_thorax_rot_x	ground_thorax_rot_y	ground_thorax_rot_z	ground_thorax_tx	ground_thorax_ty	ground_thorax_tz	clav_prot_r	clav_elev_r	scapula_abduction_r	scapula_elevation_r	scapula_upward_rot_r	scapula_winging_r	shoulder_elv_r	plane_of_elev_r	axial_rot_r	elbow_flexion_r	pro_sup_r	wrist_flex_r	wrist_dev_r	clav_prot_l	clav_elev_l	scapula_abduction_l	scapula_elevation_l	scapula_upward_rot_l	scapula_winging_l	shoulder_elv_l	plane_of_elev_l	axial_rot_l	elbow_flexion_l	pro_sup_l	wrist_flex_l	wrist_dev_l	
7.6600	40.135651	3.523722	12.212370	-196.243514	832.860979	-9.655941	3.934326	43.384291	44.996244	43.468846	6.467050	2405.644564	-2098.185945	16.114188	-180.000000	6.063662	294.763355	18.218164	9.191479	10.665054	-45.000000	-33.314708	45.000000	-45.000000	-983.710346	-2259.039688	146.450472	134.939013	-350.380886	32.480178	8.967415	-21.597351	
7.6700	40.207635	3.627370	12.117744	-196.826924	833.567889	-9.640166	3.888901	43.536566	44.905370	43.530873	6.314844	2405.662012	-2098.317938	16.202612	-180.000000	6.056139	294.688578	18.389305	9.081137	10.751309	-45.000000	-33.313578	45.000000	-45.000000	-983.648341	-2259.005898	146.528326	134.740815	-350.274645	32.845523	8.934110	-21.661195	
7.6800	40.294821	3.756157	12.050709	-197.349198	834.245349	-9.619503	3.810754	43.643081	44.836597	43.597019	6.101815	2405.648769	-2098.432627	16.331428	-180.000000	6.047199	294.597325	18.661460	8.937939	10.836945	-45.000000	-33.295602	45.000000	-45.000000	-983.624384	-2258.993917	146.624976	134.579291	-350.205246	33.213165	8.941882	-21.731339	
7.6900	40.364199	3.883480	12.005229	-197.733298	834.858947	-9.588590	3.761578	43.714067	44.750947	43.649849	5.970234	2405.696290	-2098.514407	16.392379	-180.000000	6.036116	294.490356	18.805775	8.848382	10.918084	-45.000000	-33.307898	45.000000	-45.000000	-983.563289	-2258.973492	146.706992	134.372633	-350.118885	33.555993	8.878905	-21.760152	
7.7000	40.427551	4.008114	11.977202	-197.977337	835.406448	-9.546212	3.728826	43.755735	44.687195	43.698701	5.864228	2405.755039	-2098.571861	16.421747	-180.000000	6.024791	294.367197	18.903167	8.782064	10.992869	-45.000000	-33.324443	45.000000	-45.000000	-983.495986	-2258.956168	146.775975	134.162441	-350.035504	33.884215	8.785121	-21.764748	
7.7100	40.483052	4.126860	11.967092	-198.070279	835.882321	-9.490838	3.701821	43.762204	44.654104	43.744776	5.779299	2405.818099	-2098.606678	16.419468	-180.000000	6.010703	294.233518	18.966367	8.734852	11.062538	-45.000000	-33.341131	45.000000	-45.000000	-983.426011	-2258.937453	146.830969	133.960063	-349.951323	34.203858	8.668287	-21.750142	
7.7200	40.531955	4.234311	11.960943	-198.022119	836.291072	-9.422671	3.683906	43.766182	44.643076	43.788069	5.716724	2405.883513	-2098.625330	16.396691	-180.000000	5.999925	294.104776	19.006903	8.700016	11.122796	-45.000000	-33.360664	45.000000	-45.000000	-983.364477	-2258.921795	146.867014	133.781322	-349.871074	34.522489	8.534712	-21.721458	
7.7300	40.572905	4.334266	11.957638	-197.852453	836.642956	-9.343184	3.660183	43.759229	44.641712	43.830070	5.659738	2405.944096	-2098.641354	16.371755	-180.000000	5.990545	293.998460	19.059262	8.665015	11.177502	-45.000000	-33.380549	45.000000	-45.000000	-983.321107	-2258.903603	146.889348	133.635410	-349.795499	34.851075	8.405383	-21.690801	
7.7400	40.606407	4.409050	11.941631	-197.580630	836.949620	-9.254553	3.657620	43.765365	44.666014	43.864536	5.629575	2405.977272	-2098.654665	16.357639	-180.000000	5.992456	293.934336	19.103866	8.637787	11.216023	-45.000000	-33.399517	45.000000	-45.000000	-983.295525	-2258.880439	146.894087	133.510192	-349.717775	35.199526	8.270802	-21.658296	
7.7500	40.634554	4.471274	11.922933	-197.226409	837.223554	-9.159507	3.645484	43.764331	44.686242	43.897079	5.629552	2406.014243	-2098.659250	16.345398	-180.000000	6.000990	293.930881	19.155186	8.611790	11.249098	-45.000000	-33.428666	45.000000	-45.000000	-983.284799	-2258.857649	146.888289	133.412710	-349.640038	35.571624	8.139647	-21.627293	
7.7600	40.655786	4.515997	11.894927	-196.808416	837.477839	-9.060683	3.642302	43.777304	44.710856	43.922126	5.669546	2406.029388	-2098.656054	16.348563	-180.000000	6.018263	294.003161	19.207233	8.587719	11.269931	-45.000000	-33.465084	45.000000	-45.000000	-983.294031	-2258.830456	146.874551	133.337495	-349.565797	35.969603	8.011069	-21.598644	
7.7700	40.670327	4.545246	11.857734	-196.344609	837.725289	-8.960517	3.634968	43.788082	44.735484	43.943746	5.750765	2406.022970	-2098.647608	16.364395	-180.000000	6.042471	294.162037	19.266197	8.563490	11.285405	-45.000000	-33.507495	45.000000	-45.000000	-983.319274	-2258.792925	146.850342	133.289645	-349.489236	36.392848	7.891127	-21.577507	
7.7800	40.679833	4.547884	11.806568	-195.850468	837.977979	-8.861067	3.641102	43.807078	44.798180	43.958477	5.875581	2405.953113	-2098.631173	16.402026	-180.000000	6.072450	294.411782	19.326816	8.539582	11.288568	-45.000000	-33.543083	45.000000	-45.000000	-983.360948	-2258.740943	146.816444	133.267101	-349.407617	36.846503	7.778043	-21.565587	
7.7900	40.687716	4.541522	11.753501	-195.339806	838.246289	-8.764469	3.625616	43.822455	44.859671	43.975268	6.038548	2405.883662	-2098.597564	16.429812	-180.000000	6.099811	294.753187	19.386487	8.511725	11.295594	-45.000000	-33.589821	45.000000	-45.000000	-983.405119	-2258.686728	146.772596	133.281990	-349.323190	37.325026	7.670159	-21.560262	
7.8000	40.693381	4.530432	11.697520	-194.822439	838.539466	-8.672786	3.607094	43.846649	44.919248	43.994281	6.235278	2405.795546	-2098.556535	16.460310	-180.000000	6.122497	295.180424	19.441972	8.479786	11.299803	-45.000000	-33.641246	45.000000	-45.000000	-983.454908	-2258.624234	146.724953	133.320986	-349.237247	37.828448	7.566217	-21.560859	
7.8100	40.702367	4.520960	11.641714	-194.305483	838.864962	-8.588365	3.573763	43.868898	44.960235	44.022112	6.453335	2405.718905	-2098.509107	16.486578	-180.000000	6.143233	295.685445	19.496315	8.442717	11.308498	-45.000000	-33.703501	45.000000	-45.000000	-983.502967	-2258.561281	146.672746	133.379269	-349.147577	38.352536	7.464923	-21.566142	
7.8200	40.716168	4.509866	11.583754	-193.792480	839.228877	-8.513466	3.538910	43.890484	44.994391	44.059757	6.688162	2405.638513	-2098.460758	16.513286	-180.000000	6.161078	296.255368	19.549565	8.400297	11.316836	-45.000000	-33.770024	45.000000	-45.000000	-983.550060	-2258.498264	146.618463	133.445197	-349.057241	38.895343	7.364679	-21.573332	
7.8300	40.736217	4.508722	11.535485	-193.285158	839.635613	-8.450148	3.478687	43.907413	45.000000	44.110676	6.919307	2405.606669	-2098.405005	16.517539	-180.000000	6.173026	296.877732	19.601470	8.350135	11.338710	-45.000000	-33.853712	45.000000	-44.999999	-983.585469	-2258.443666	146.564414	133.517677	-348.965424	39.445682	7.263133	-21.579158	
7.8400	40.760342	4.509279	11.489664	-192.782948	840.088631	-8.399573	3.421176	43.930595	45.000000	44.170657	7.146922	2405.574101	-2098.356624	16.523339	-180.000000	6.181247	297.538189	19.654669	8.293437	11.363934	-45.000000	-33.937703	45.000000	-44.999999	-983.617762	-2258.384936	146.511038	133.580577	-348.871493	39.999707	7.161179	-21.584041	
7.8500	40.789627	4.505783	11.442214	-192.284809	840.590355	-8.361923	3.363237	43.956499	45.000000	44.240092	7.383462	2405.533642	-2098.315244	16.534693	-180.000000	6.195287	298.229454	19.712188	8.232762	11.390278	-45.000000	-34.021636	45.000000	-44.999998	-983.648906	-2258.322484	146.457018	133.636782	-348.771460	40.554645	7.059574	-21.589082	
7.8600	40.820510	4.497518	11.394928	-191.789521	841.142813	-8.336287	3.297102	43.974930	45.000000	44.312050	7.630151	2405.495987	-2098.273178	16.541061	-180.000000	6.208508	298.939690	19.773621	8.166694	11.421498	-45.000000	-34.111919	45.000000	-44.999997	-983.674840	-2258.261845	146.401647	133.694619	-348.673285	41.103752	6.958188	-21.590336	
7.8700	40.852873	4.489244	11.349110	-191.296328	841.748026	-8.320909	3.218944	43.981077	45.000000	44.387946	7.879142	2405.471666	-2098.226269	16.534778	-180.000000	6.221587	299.653374	19.837522	8.097417	11.459634	-45.000000	-34.211201	45.000000	-44.999994	-983.692959	-2258.204042	146.341904	133.760862	-348.575424	41.638414	6.857418	-21.587906	
7.8800	40.884222	4.473426	11.299543	-190.804836	842.408828	-8.313561	3.136262	43.965448	45.000000	44.462760	8.141654	2405.454583	-2098.175158	16.522825	-180.000000	6.234465	300.352789	19.904904	8.027394	11.500225	-45.000000	-34.320018	45.000000	-44.999990	-983.702365	-2258.149828	146.275399	133.842263	-348.479660	42.150482	6.757313	-21.580984	
7.8900	40.917384	4.454060	11.244521	-190.314976	843.129355	-8.311975	3.047264	43.938240	45.000000	44.546664	8.422580	2405.437746	-2098.121564	16.505573	-180.000000	6.253657	301.028007	19.974326	7.962112	11.542814	-45.000000	-34.435032	45.000000	-44.999981	-983.708465	-2258.096128	146.200319	133.944160	-348.381890	42.636452	6.660303	-21.574352	
7.9000	40.944905	4.424599	11.184533	-189.826689	843.915410	-8.314191	2.952725	43.893986	45.000000	44.623925	8.719272	2405.423320	-2098.058600	16.490999	-180.000000	6.271875	301.670809	20.046977	7.901045	11.588155	-45.000000	-34.560175	45.000000	-44.999966	-983.707645	-2258.038403	146.116911	134.071034	-348.286615	43.093929	6.565517	-21.566973	
7.9100	40.967780	4.394532	11.123102	-189.339376	844.774738	-8.318711	2.852638	43.857681	45.000000	44.702109	9.019764	2405.407063	-2097.990566	16.481977	-180.000000	6.292540	302.282441	20.121403	7.847203	11.636561	-45.000000	-34.687341	45.000000	-44.999940	-983.706933	-2257.968146	146.027101	134.219528	-348.190997	43.529413	6.475757	-21.564904	
